<svg id="Layer_1" data-name="Layer 1" xmlns="http://www.w3.org/2000/svg" viewBox="0 0 1854.55 263.66"><defs><style>.cls-1{fill:#f7d25f;}.cls-2{fill:#de6d4f;}.cls-3{fill:#54b9cd;}.cls-4{fill:#fff;}</style></defs><path class="cls-1" d="M204.65,937.73l-57.08,57.08a45,45,0,0,1-5.48,4.53l-.7.48a44.48,44.48,0,0,1-17.51,7,43.56,43.56,0,0,1-7,.6,42.06,42.06,0,0,1-7.06-.53,43.19,43.19,0,0,1-17.72-7.06A44,44,0,0,1,73,963.52V912a43.88,43.88,0,0,1,74.91-31l0,0Z" transform="translate(-73.01 -867.82)"/><path class="cls-2" d="M323.47,943.08l0,0L147.94,1118.65l0,0a43.88,43.88,0,0,1-74.91-31V963.53a44,44,0,0,0,19.1,36.3,43.14,43.14,0,0,0,17.72,7.06,44.17,44.17,0,0,0,31.56-7.06l.7-.48a45,45,0,0,0,5.48-4.53l1.06-1.06,56-56h0l25.67-25.67,15.43-15.43,2.79-2.79L261.38,881l0,0a43.89,43.89,0,0,1,62.07,62.06Z" transform="translate(-73.01 -867.82)"/><path class="cls-3" d="M336.32,1087.6a43.88,43.88,0,0,1-74.91,31l0,0a43.88,43.88,0,0,1,62.06-62.06l0,0A43.72,43.72,0,0,1,336.32,1087.6Z" transform="translate(-73.01 -867.82)"/><path class="cls-4" d="M444.47,867.83a20.43,20.43,0,0,1,20.4,20.4V1005h6.41a55.29,55.29,0,0,0,55.46-49.72,20.08,20.08,0,0,1,6.74-13A19.21,19.21,0,0,1,547.13,937h.51a19.39,19.39,0,0,1,15,6.74A19.67,19.67,0,0,1,568,957.35a16,16,0,0,1-.17,2.19q-4.05,42.3-32.36,63.37,14.84,9.11,27.3,30.85a95,95,0,0,1,13,48.37v8.6a18.88,18.88,0,0,1-6.07,14.33,19.57,19.57,0,0,1-14.33,6.07h-.5a19.58,19.58,0,0,1-14.33-6.07,18.88,18.88,0,0,1-6.07-14.33v-8.6a55.53,55.53,0,0,0-55.79-55.45H464.87v64a18.88,18.88,0,0,1-6.07,14.33,19.58,19.58,0,0,1-14.33,6.07H444a19.58,19.58,0,0,1-14.33-6.07,18.88,18.88,0,0,1-6.07-14.33V888.22a20.43,20.43,0,0,1,20.4-20.4h.51Z" transform="translate(-73.01 -867.82)"/><path class="cls-4" d="M648.87,1110.71A18.88,18.88,0,0,1,642.8,1125a19.58,19.58,0,0,1-14.33,6.07H628a19.58,19.58,0,0,1-14.33-6.07,18.88,18.88,0,0,1-6.07-14.33v-92.2q0-33.71,23.93-57.64t57.64-23.94q33.54,0,57.48,23.94t23.93,57.64v92.2a20.73,20.73,0,0,1-20.4,20.4h-.34a19.78,19.78,0,0,1-14.5-6.07,18.88,18.88,0,0,1-6.07-14.33v-92.2a40.2,40.2,0,1,0-80.4,0v92.2Z" transform="translate(-73.01 -867.82)"/><path class="cls-4" d="M992.05,993.56a19.28,19.28,0,0,1,.67,15.68,19.37,19.37,0,0,1-10.79,11.46q-23.59,10.62-62,28-47.7,21.57-56,25.45,12.81,16.18,39.95,16.18a56,56,0,0,0,52.76-37.59q4.89-13.82,19.55-13.82,10.45,0,16.69,8.76a19.11,19.11,0,0,1,3.88,11.29,21.11,21.11,0,0,1-1.35,7.25,92.9,92.9,0,0,1-34.89,46.52,94,94,0,0,1-56.63,18.37q-40.11,0-68.6-28.48T806.82,1034q0-40.11,28.48-68.6t68.6-28.48a97.45,97.45,0,0,1,88.15,56.63Zm-88.15-15a53.94,53.94,0,0,0-39.61,16.35q-16.18,16.35-16.18,39.61v1.18l94.22-42.31Q929.85,978.57,903.9,978.56Z" transform="translate(-73.01 -867.82)"/><path class="cls-4" d="M1156.06,941.48q14.32,4.54,14.33,19.55v.84a19.27,19.27,0,0,1-8.26,16.35,20.2,20.2,0,0,1-11.8,4,22.87,22.87,0,0,1-6.57-1,54.73,54.73,0,0,0-17-2.69,53.94,53.94,0,0,0-39.61,16.35q-16.19,16.35-16.18,39.61a55.68,55.68,0,0,0,72.81,53.09,21,21,0,0,1,6.41-1,20.5,20.5,0,0,1,12,4,19.43,19.43,0,0,1,8.26,16.52q0,14.83-14.33,19.55a98.65,98.65,0,0,1-29.33,4.38q-40.11,0-68.6-28.48t-28.48-68.6q0-40.11,28.48-68.6t68.6-28.48A95.08,95.08,0,0,1,1156.06,941.48Z" transform="translate(-73.01 -867.82)"/><path class="cls-4" d="M1227.53,867.83a20.43,20.43,0,0,1,20.4,20.4v48.71h25.28a20.73,20.73,0,0,1,20.4,20.56v.34a18.88,18.88,0,0,1-6.07,14.33,19.58,19.58,0,0,1-14.33,6.07h-25.28v100a11.22,11.22,0,0,0,3.37,8.26,11.43,11.43,0,0,0,8.43,3.37h13.48a20.73,20.73,0,0,1,20.4,20.56v.34a18.88,18.88,0,0,1-6.07,14.33,19.58,19.58,0,0,1-14.33,6.07h-13.48a51.55,51.55,0,0,1-37.59-15.51q-15.51-15.67-15.51-37.42v-190a20.43,20.43,0,0,1,20.4-20.4h.5Z" transform="translate(-73.01 -867.82)"/><path class="cls-4" d="M1345.69,867.83a20.43,20.43,0,0,1,20.4,20.4v58.66q13.32-9.95,40.28-9.94,33.54,0,57.48,23.94t23.93,57.64v92.2a20.73,20.73,0,0,1-20.4,20.4H1467a19.78,19.78,0,0,1-14.5-6.07,18.88,18.88,0,0,1-6.07-14.33v-92.2a40.2,40.2,0,1,0-80.4,0v92.2a18.88,18.88,0,0,1-6.07,14.33,19.58,19.58,0,0,1-14.33,6.07h-.51a19.58,19.58,0,0,1-14.33-6.07,18.88,18.88,0,0,1-6.07-14.33V888.22a20.43,20.43,0,0,1,20.4-20.4h.53Z" transform="translate(-73.01 -867.82)"/><path class="cls-4" d="M1570.38,1049.69a40.2,40.2,0,1,0,80.39,0v-92.2a20.73,20.73,0,0,1,20.57-20.56h.34A18.88,18.88,0,0,1,1686,943a19.76,19.76,0,0,1,6.07,14.49v92.2q0,33.54-23.93,57.48t-57.48,23.94q-33.72,0-57.64-23.94t-23.94-57.48v-92.2a20.73,20.73,0,0,1,20.4-20.56h.51a19.6,19.6,0,0,1,14.33,6.07,19.8,19.8,0,0,1,6.07,14.49v92.2Z" transform="translate(-73.01 -867.82)"/><path class="cls-4" d="M1754.28,867.83a20.43,20.43,0,0,1,20.4,20.4V953.8q19-16.86,55.79-16.85,40.11,0,68.6,28.48t28.49,68.6q0,40.11-28.49,68.6t-68.6,28.48q-40.11,0-68.43-28.32-28.49-28.15-28.65-68.26V888.23a20.43,20.43,0,0,1,20.4-20.4Zm76.18,110.73a53.94,53.94,0,0,0-39.61,16.35q-16.18,16.35-16.18,39.61a55.78,55.78,0,1,0,55.79-56Z" transform="translate(-73.01 -867.82)"/></svg>