<svg id="Layer_1" data-name="Layer 1" xmlns="http://www.w3.org/2000/svg" xmlns:xlink="http://www.w3.org/1999/xlink" viewBox="0 0 521.3 730.7"><defs><style>.cls-1,.cls-2,.cls-3,.cls-5,.cls-7,.cls-8,.cls-9{opacity:0.3;}.cls-1,.cls-10,.cls-11,.cls-13,.cls-14,.cls-15,.cls-16,.cls-2,.cls-3,.cls-5,.cls-7,.cls-8,.cls-9{isolation:isolate;}.cls-1{fill:url(#linear-gradient);}.cls-2{fill:url(#linear-gradient-2);}.cls-3{fill:url(#linear-gradient-3);}.cls-4{fill:#f7d25f;}.cls-5{fill:url(#linear-gradient-4);}.cls-6{fill:#55b9cd;}.cls-7{fill:url(#linear-gradient-5);}.cls-8{fill:url(#linear-gradient-6);}.cls-9{fill:url(#linear-gradient-7);}.cls-10,.cls-11,.cls-16{fill:#fff;}.cls-10{opacity:0.15;}.cls-11,.cls-13,.cls-14,.cls-15{opacity:0.2;}.cls-12{fill:#de6d4f;}.cls-13{fill:url(#linear-gradient-8);}.cls-14{fill:url(#linear-gradient-9);}.cls-15{fill:url(#linear-gradient-10);}.cls-16{opacity:0.4;}</style><linearGradient id="linear-gradient" x1="1.24" y1="792.84" x2="-0.01" y2="792.45" gradientTransform="matrix(112.11, 0, 0, -573.14, 203.93, 454500.4)" gradientUnits="userSpaceOnUse"><stop offset="0" stop-color="#fff"/><stop offset="1" stop-color="#fff" stop-opacity="0"/></linearGradient><linearGradient id="linear-gradient-2" x1="-0.05" y1="793.38" x2="0.74" y2="793.84" gradientTransform="matrix(111.97, 0, 0, -297.03, 247.94, 236306.32)" xlink:href="#linear-gradient"/><linearGradient id="linear-gradient-3" x1="-1.35" y1="792.99" x2="-5.19" y2="792.57" gradientTransform="matrix(31.67, 0, 0, -451.02, 451.71, 357841.94)" xlink:href="#linear-gradient"/><linearGradient id="linear-gradient-4" x1="0.36" y1="793.57" x2="-0.68" y2="792.9" gradientTransform="matrix(111.97, 0, 0, -269.17, 467.83, 213840.85)" xlink:href="#linear-gradient"/><linearGradient id="linear-gradient-5" x1="1.11" y1="793.79" x2="0.43" y2="793.79" gradientTransform="matrix(280.29, 0, 0, -259.72, 268.96, 206772.21)" xlink:href="#linear-gradient"/><linearGradient id="linear-gradient-6" x1="-5.01" y1="793.4" x2="-2.24" y2="793.81" gradientTransform="matrix(31.67, 0, 0, -335.46, 481, 266886.96)" xlink:href="#linear-gradient"/><linearGradient id="linear-gradient-7" x1="1.74" y1="793.34" x2="1.2" y2="792.95" gradientTransform="matrix(228.16, 0, 0, -498.55, -155.54, 395918.41)" xlink:href="#linear-gradient"/><linearGradient id="linear-gradient-8" x1="0.42" y1="793.94" x2="0.29" y2="793.72" gradientTransform="matrix(216.94, 0, 0, -214.24, 422.84, 170598.82)" xlink:href="#linear-gradient"/><linearGradient id="linear-gradient-9" x1="1.43" y1="793.37" x2="1.29" y2="793.15" gradientTransform="matrix(216.94, 0, 0, -214.24, -133.82, 170288.17)" xlink:href="#linear-gradient"/><linearGradient id="linear-gradient-10" x1="0.72" y1="793.7" x2="0.59" y2="793.17" gradientTransform="matrix(179.38, 0, 0, -242.35, 227.9, 192748.53)" xlink:href="#linear-gradient"/></defs><path id="Path" class="cls-1" d="M246.37,35.15c5.38,2.76,9.65,9.52,9.65,15V198.52l48.91,25.41v153c0,5.53-4.35,7.76-9.64,5s-9.65-9.52-9.65-15.05v-133l-49-25.34V40.14C236.64,34.61,241,32.38,246.37,35.15Z" transform="translate(-44.71 -33.96)"/><path id="Path-2" class="cls-2" d="M273,679.41c5.37,2.77,9.64.54,9.64-5V563.25l48.92,25.42V515.89c0-5.53-4.35-12.29-9.65-15.05s-9.64-.54-9.64,5v52.74l-48.92-25.41v131.2C263.36,669.89,267.71,676.65,273,679.41Z" transform="translate(-44.71 -33.96)"/><path id="Path-3" class="cls-3" d="M348.22,144c5.38,2.76,9.65,9.52,9.65,15.05V411.4c0,5.53-4.36,7.76-9.65,5s-9.65-9.52-9.65-15V149C338.57,143.47,342.93,141.24,348.22,144Z" transform="translate(-44.71 -33.96)"/><path id="Path-4" class="cls-4" d="M293.41,666.74c0,15.2-9.9,22.42-22.11,16s-22.11-23.8-22.11-39,9.9-22.42,22.11-16S293.41,651.54,293.41,666.74Z" transform="translate(-44.71 -33.96)"/><path id="Path-5" class="cls-5" d="M455.88,270.53c-5.38-2.77-9.65-.54-9.65,5v74.93L397.31,325v92c0,5.53,4.35,12.29,9.65,15.05s9.64.54,9.64-5v-72l48.92,25.41v-95C465.52,280.05,461.17,273.29,455.88,270.53Z" transform="translate(-44.71 -33.96)"/><path id="Path-6" class="cls-6" d="M477.56,297c0,15.05-9.82,22.11-21.85,15.9s-21.86-23.5-21.86-38.54,9.73-22.11,21.86-15.9S477.56,282,477.56,297Z" transform="translate(-44.71 -33.96)"/><path id="Path-7" class="cls-7" d="M549.45,680.26c0-5.53-4.36-12.29-9.65-15l-76-39.46v-57.2L388.35,529.4c-5.38-2.76-9.65-.54-9.65,5s4.35,12.28,9.65,15.05l56.17,29.17v57.2l95.37,49.44C545.18,688,549.45,685.78,549.45,680.26Z" transform="translate(-44.71 -33.96)"/><path id="Path-8" class="cls-8" d="M366.06,763.48c-5.37-2.77-9.64-9.52-9.64-15.05V566.48c0-5.53,4.35-7.75,9.64-5s9.65,9.52,9.65,15v182C375.71,764,371.36,766.24,366.06,763.48Z" transform="translate(-44.71 -33.96)"/><path id="Path-9" class="cls-6" d="M561.23,686.86c0,15.2-9.9,22.42-22.11,16S517,679.11,517,663.9s9.9-22.41,22.11-16S561.23,671.66,561.23,686.86Z" transform="translate(-44.71 -33.96)"/><path id="Path-10" class="cls-9" d="M88.34,381.46l139,72.17V685.17L88.34,613Z" transform="translate(-44.71 -33.96)"/><path id="Path-11" class="cls-10" d="M110.37,528.71l82.81,43v9.14l-82.81-43Z" transform="translate(-44.71 -33.96)"/><path id="Path-12" class="cls-10" d="M119,551.2l65.65,34.09v9.14L119,560.34Z" transform="translate(-44.71 -33.96)"/><path id="Path-13" class="cls-4" d="M141.36,592.43,44.71,542.22v25.87l96.73,50.21Z" transform="translate(-44.71 -33.96)"/><path id="Path-14" class="cls-11" d="M188,476.74l-21.6,15.35-14.51-16.74-19,14.75-7.52-4.92,27.92-21.11,14.17,16.73,15.63-10.44Z" transform="translate(-44.71 -33.96)"/><path id="Path-15" class="cls-12" d="M204.19,476.35c0,8.68-5.63,12.75-12.55,9.14S179.09,472,179.09,463.3s5.64-12.74,12.55-9.14S204.19,467.75,204.19,476.35Z" transform="translate(-44.71 -33.96)"/><path id="Path-16" class="cls-4" d="M139.48,493.09c0,8.67-5.64,12.74-12.55,9.14S114.38,488.71,114.38,480s5.64-12.75,12.55-9.14S139.48,484.41,139.48,493.09Z" transform="translate(-44.71 -33.96)"/><path id="Path-17" class="cls-13" d="M566,532.86,433.85,464.22V526.1L566,594.73Z" transform="translate(-44.71 -33.96)"/><path id="Path-18" class="cls-10" d="M467.66,496.77l39.78,20.65v7.45l-39.78-20.73Z" transform="translate(-44.71 -33.96)"/><path id="Path-19" class="cls-10" d="M467.74,511.67l84.7,43.91v7.52l-84.7-43.91Z" transform="translate(-44.71 -33.96)"/><path id="Path-20" class="cls-6" d="M460.74,498.92c0,5.07-3.33,7.53-7.51,5.38s-7.51-8.07-7.51-13.13,3.33-7.53,7.51-5.38S460.74,493.86,460.74,498.92Z" transform="translate(-44.71 -33.96)"/><path id="Path-21" class="cls-14" d="M226.9,343.61,94.74,275v61.88L226.9,405.49Z" transform="translate(-44.71 -33.96)"/><path id="Path-22" class="cls-10" d="M128.55,307.53l39.79,20.65v7.45L128.55,315Z" transform="translate(-44.71 -33.96)"/><path id="Path-23" class="cls-10" d="M128.64,322.42l84.69,43.92v7.52L128.64,330Z" transform="translate(-44.71 -33.96)"/><path id="Path-24" class="cls-12" d="M121.64,309.68c0,5.07-3.33,7.52-7.52,5.37s-7.51-8.06-7.51-13.12,3.33-7.53,7.51-5.38S121.64,304.61,121.64,309.68Z" transform="translate(-44.71 -33.96)"/><path id="Path-25" class="cls-15" d="M401.49,478.12c0,37.61-24.5,55.43-54.64,39.76s-54.63-58.88-54.63-96.5,24.5-55.43,54.63-39.76S401.49,440.5,401.49,478.12Z" transform="translate(-44.71 -33.96)"/><path id="Shape" class="cls-16" d="M331.57,527.63c-30.13-15.66-54.64-58.88-54.64-96.5s24.42-55.43,54.64-39.77,54.64,58.89,54.64,96.5c0,28.36-13.87,45.46-33.64,45.46C346.11,533.32,339,531.49,331.57,527.63Z" transform="translate(-44.71 -33.96)"/><path id="Path-26" class="cls-4" d="M338.05,444c0,8.93-5.16,13.17-11.51,9.45S315,439.51,315,430.57s5.17-13.16,11.52-9.44S338.05,435.07,338.05,444Z" transform="translate(-44.71 -33.96)"/><path id="Path-27" class="cls-4" d="M326.54,460.63c-10.28-6-18.75-.37-20.24,12.54-.26,2.22,1.44,5.22,3.51,6.41l33.51,19.56c2.06,1.19,3.77.26,3.51-2.32C345.28,482.11,336.76,466.62,326.54,460.63Z" transform="translate(-44.71 -33.96)"/></svg>